<?xml version="1.0" encoding="UTF-8"?>
<svg id="Capa_2" data-name="Capa 2" xmlns="http://www.w3.org/2000/svg" xmlns:xlink="http://www.w3.org/1999/xlink" viewBox="0 0 7212.31 1083.18">
  <defs>
    <style>
      .cls-1 {
        fill: url(#Degradado_sin_nombre_12);
      }

      .cls-1, .cls-2, .cls-3 {
        stroke-width: 0px;
      }

      .cls-2 {
        fill: url(#Degradado_sin_nombre_9);
      }

      .cls-3 {
        fill: #1d1d3d;
      }
    </style>
    <linearGradient id="Degradado_sin_nombre_12" data-name="Degradado sin nombre 12" x1="34.23" y1="974.08" x2="360.44" y2="647.87" gradientUnits="userSpaceOnUse">
      <stop offset="0" stop-color="#fa23c3"/>
      <stop offset=".58" stop-color="#fd5782"/>
      <stop offset="1" stop-color="#ff7a59"/>
    </linearGradient>
    <linearGradient id="Degradado_sin_nombre_9" data-name="Degradado sin nombre 9" x1="367.5" y1="636.88" x2="986.62" y2="17.77" gradientUnits="userSpaceOnUse">
      <stop offset=".09" stop-color="#812df2"/>
      <stop offset=".21" stop-color="#6e3af0"/>
      <stop offset=".72" stop-color="#2572eb"/>
      <stop offset=".95" stop-color="#0989e9"/>
    </linearGradient>
  </defs>
  <g id="Layer_1" data-name="Layer 1">
    <g>
      <rect class="cls-1" y="611.53" width="396.78" height="396.78" rx="46.84" ry="46.84"/>
      <path class="cls-2" d="m151.89,47.77v303.09c0,25.87,20.97,46.84,46.84,46.84h365.02c25.87,0,46.84,20.97,46.84,46.84v357.18c0,25.87,20.97,46.84,46.84,46.84h303.09c25.87,0,46.84-20.97,46.84-46.84V47.77c0-25.87-20.97-46.84-46.84-46.84H198.74c-25.87,0-46.84,20.97-46.84,46.84Z"/>
      <g>
        <path class="cls-3" d="m3760.47,213.05c-78.99,0-139.46,26.07-180.25,77.57v-22.86c0-21.56-17.48-39.03-39.03-39.03h-39.75c-21.56,0-39.03,17.48-39.03,39.03v541.6c0,21.56,17.48,39.03,39.03,39.03h41.99c21.56,0,39.03-17.48,39.03-39.03v-304.96c0-52.41,14.96-95.73,44.45-128.75,29.62-33.14,67.08-49.25,114.51-49.25s79.94,14.97,106.55,45.76c26.61,30.82,40.09,75.31,40.09,132.24v304.96c0,21.56,17.48,39.03,39.03,39.03h41.99c21.56,0,39.03-17.48,39.03-39.03v-334.09c0-83.9-24.05-149.33-71.5-194.45-47.31-44.98-106.58-67.78-176.16-67.78Z"/>
        <path class="cls-3" d="m4679.29.22h-41.99c-21.56,0-39.03,17.48-39.03,39.04v261.72c-53.84-57.63-122.27-86.8-203.77-86.8-88.43,0-162.93,32-221.38,95.06-59.07,62.89-89.01,139.86-89.01,228.77s29.56,168.08,87.89,231c58.48,62.33,134.09,93.94,224.74,93.94,81.84,0,149.5-27.43,201.53-81.63v28.03c0,21.56,17.48,39.03,39.03,39.03h41.99c21.56,0,39.03-17.48,39.03-39.03V39.26c0-21.56-17.48-39.04-39.03-39.04Zm-128.77,689.99c-36.65,40.16-85.37,60.53-144.83,60.53s-108.19-20.37-144.76-60.47c-36.93-41.16-55.65-92.39-55.65-152.26s18.68-110.21,55.65-150.03c36.64-40.86,85.34-61.58,144.76-61.58s108.11,20.72,144.88,61.71c36.85,39.71,55.53,90.14,55.53,149.9s-18.72,111.08-55.59,152.2Z"/>
        <path class="cls-3" d="m5393.95,228.73h-38.63c-21.56,0-39.03,17.48-39.03,39.03v32.54c-54.42-57.18-122.84-86.13-203.77-86.13-89.1,0-163.93,30.82-222.32,91.53-58.44,59.21-88.07,136.24-88.07,228.95s29.56,171.44,87.89,234.37c58.48,62.33,133.34,93.94,222.5,93.94,81.5,0,149.92-28.27,203.77-84.11v30.51c0,21.56,17.48,39.03,39.03,39.03h38.63c21.56,0,39.03-17.48,39.03-39.03V267.77c0-21.56-17.48-39.03-39.03-39.03Zm-126.47,461.41c-37.4,40.21-86.15,60.6-144.89,60.6s-107.5-20.39-144.7-60.39c-36.23-41.19-54.59-92.06-54.59-151.22s18.35-110.71,54.53-151.15c36.64-40.86,85.34-61.58,144.76-61.58s108.11,20.72,144.83,61.65c37.62,41.19,56.7,91.64,56.7,149.96s-19.1,110.33-56.64,152.13Z"/>
        <path class="cls-3" d="m5858.54.22h-243.35c-21.56,0-39.03,17.48-39.03,39.04v770.11c0,21.56,17.48,39.03,39.03,39.03h45.36c21.56,0,39.04-17.48,39.04-39.03v-282.46h148.88c90.6,0,161.29-25.94,210.11-77.08,49.44-51.76,74.51-114.42,74.51-186.26s-23.88-133.21-70.93-184.91C6015.54,26.62,5947.03.22,5858.54.22Zm108.69,367.09c-27.38,27.72-66.97,41.77-117.65,41.77h-150V119.16h165.68c44.65,0,80.04,13.45,105.19,39.94,25.28,26.69,38.1,61.07,38.1,102.22,0,43.17-13.51,77.83-41.31,105.98Z"/>
        <path class="cls-3" d="m7119.85,309.15c-60.73-63.02-138.57-94.97-231.37-94.97s-171.78,31.95-232.4,94.89c-60.67,61.44-91.43,138.47-91.43,228.95s30.76,169.76,91.39,231.14c60.69,62.25,138.9,93.81,232.45,93.81s171.74-31.56,232.4-93.76c60.67-61.44,91.43-139.23,91.43-231.19s-31.12-165.98-92.47-228.86Zm-87.53,379.8c-38.88,41.01-87.28,61.8-143.84,61.8s-104.97-20.79-143.84-61.8c-39.03-41.14-58.82-91.92-58.82-150.94s19.79-107.54,58.81-148.7c39.62-41.74,88.02-62.91,143.84-62.91s104.2,21.17,143.83,62.91c39.03,41.17,58.82,91.21,58.82,148.7s-19.79,109.78-58.82,150.94Z"/>
        <path class="cls-3" d="m1706.35,24.39c-5.97-14.74-20.28-24.39-36.18-24.39h-42.36c-15.91,0-30.22,9.65-36.19,24.4l-311.62,770.33c-10.38,25.66,8.51,53.67,36.19,53.67h50.18c16.13,0,30.59-9.92,36.41-24.96l54.7-141.46h380.84l54.7,141.46c5.82,15.04,20.28,24.96,36.41,24.96h52.42c27.68,0,46.57-28.02,36.18-53.68L1706.35,24.39Zm-202.82,538.63l144.37-373.62,144.42,373.62h-288.79Z"/>
        <path class="cls-3" d="m2639.49,228.73h-41.99c-21.56,0-39.03,17.48-39.03,39.04v23.75c-52.39-51.35-118.93-77.34-198.17-77.34-88.28,0-163.82,30.77-224.52,91.48-60.7,60.7-91.48,136.61-91.48,225.63s29.98,165.22,89.1,226.62c58.47,60.8,133.3,91.62,222.42,91.62,81.38,0,149.43-26.38,202.65-78.49v4c0,58.04-19.28,105.67-57.51,141.78-36.69,36.67-87.78,55.27-151.86,55.27v-.02h-116.61c-21.56,0-39.03,17.48-39.03,39.04v33.05c0,21.56,17.48,39.03,39.03,39.03h116.61c100.15,0,180.59-29.65,239.03-88.07,59.99-59.23,90.4-139.31,90.4-238v-489.33c0-21.56-17.48-39.04-39.03-39.04Zm-130.89,451.26c-36.66,38.76-84.67,58.42-142.71,58.42s-105.81-19.7-143.83-58.43c-37.55-39.65-56.58-89.68-56.58-148.7s19.04-107.91,56.59-147.59c36.65-38.76,85.04-58.42,143.83-58.42s106.04,19.66,142.77,58.49c38.24,39.67,57.64,89.31,57.64,147.52s-19.37,109.67-57.7,148.71Z"/>
        <path class="cls-3" d="m6519.69,211.28h-32.06c-71.15.31-125.73,26.67-162.69,78.53v-23.79c0-21.56-17.48-39.03-39.03-39.03h-36.71c-21.56,0-39.04,17.48-39.04,39.03v543.34c0,21.56,17.48,39.03,39.04,39.03h42.33c21.56,0,39.03-17.48,39.03-39.03v-294.69c0-60.01,14.61-106.65,43.43-138.64,28.92-32.1,66.1-47.71,113.65-47.73v-.04h32.06c21.56,0,39.03-17.48,39.03-39.04v-38.91c0-21.56-17.48-39.04-39.03-39.04Z"/>
        <path class="cls-3" d="m3078.39,213.88c-92.09,0-168.31,31.09-226.54,92.41-58.08,61.18-87.52,139.55-87.52,232.94,0,56.94,10.95,109.85,32.54,157.28,21.81,47.92,58.81,88.72,109.99,121.3,51.13,32.54,114.54,49.04,188.47,49.04,49.08,0,98.08-8.36,145.66-24.85,13.6-4.71,26.86-9.94,39.7-15.65,13.95-6.21,22.77-20.24,22.77-35.51v-37.98c0-28.49-29.38-47.1-55.36-35.41-13.48,6.07-27.66,11.56-42.48,16.45-37.54,12.4-73.88,18.68-108.02,18.68-60.35,0-108.2-15.46-142.23-45.94-31.54-28.25-52.45-66.26-62.25-113.09h445.81c20.58,0,37.58-15.96,38.96-36.5.59-8.79,1.02-18.15,1.02-26.85,0-96.46-28.35-174.12-84.27-230.82-55.97-56.73-128.72-85.5-216.24-85.5Zm-185.35,268.78c9.21-44.74,29.78-81.8,61.23-110.31,34.02-30.83,75.79-46.46,124.11-46.46s88.98,15.4,121.13,45.75c29.79,28.17,47.2,65.47,51.85,111.02h-358.32Z"/>
      </g>
    </g>
  </g>
</svg>